<svg xmlns="http://www.w3.org/2000/svg" xmlns:xlink="http://www.w3.org/1999/xlink" contentStyleType="text/css" data-diagram-type="ACTIVITY" height="1741px" preserveAspectRatio="none" style="width:1050px;height:1741px;background:#FFFFFF;" version="1.1" viewBox="0 0 1050 1741" width="1050px" zoomAndPan="magnify"><title>battery_core monitor_work &#21047;&#26032;&#27969;&#31243;&#65288;Activity Diagram&#65289;</title><defs/><g><g class="title" data-source-line="1"><text fill="#000000" font-family="sans-serif" font-size="14" font-weight="bold" lengthAdjust="spacing" textLength="433.4664" x="306.8898" y="32.9951">battery_core monitor_work &#21047;&#26032;&#27969;&#31243;&#65288;Activity Diagram&#65289;</text></g><ellipse cx="625.6013" cy="57.2969" fill="#222222" rx="10" ry="10" style="stroke:#222222;stroke-width:1;"/><rect fill="#FFFFFF" height="33.9688" rx="12.5" ry="12.5" style="stroke:#333333;stroke-width:0.5;" width="225.8107" x="512.696" y="87.2969"/><text fill="#000000" font-family="sans-serif" font-size="12" lengthAdjust="spacing" textLength="205.8107" x="522.696" y="108.4355">monitor_work &#35302;&#21457; (delayed_work)</text><rect fill="#FFFFFF" height="33.9688" rx="12.5" ry="12.5" style="stroke:#333333;stroke-width:0.5;" width="209.293" x="520.9548" y="141.2656"/><text fill="#000000" font-family="sans-serif" font-size="12" lengthAdjust="spacing" textLength="189.293" x="530.9548" y="162.4043">__pm_wakeup_event(wakelock)</text><rect fill="#FFFFFF" height="33.9688" rx="12.5" ry="12.5" style="stroke:#333333;stroke-width:0.5;" width="155.3223" x="547.9402" y="195.2344"/><text fill="#000000" font-family="sans-serif" font-size="12" lengthAdjust="spacing" textLength="135.3223" x="557.9402" y="216.373">mutex_lock(data_lock)</text><rect fill="#FFFFFF" height="33.9688" rx="12.5" ry="12.5" style="stroke:#333333;stroke-width:0.5;" width="318.0664" x="466.5681" y="249.2031"/><text fill="#000000" font-family="sans-serif" font-size="12" lengthAdjust="spacing" textLength="298.0664" x="476.5681" y="270.3418">exist = coul_interface_is_battery_exist(coul_type)</text><polygon fill="#FFFFFF" points="593.2808,303.1719,657.9219,303.1719,669.9219,315.1719,657.9219,327.1719,593.2808,327.1719,581.2808,315.1719,593.2808,303.1719" style="stroke:#333333;stroke-width:0.5;"/><text fill="#000000" font-family="sans-serif" font-size="11" lengthAdjust="spacing" textLength="64.6411" x="593.2808" y="318.98">exist == 1?</text><text fill="#000000" font-family="sans-serif" font-size="11" lengthAdjust="spacing" textLength="19.0083" x="562.2725" y="312.5776">yes</text><text fill="#000000" font-family="sans-serif" font-size="11" lengthAdjust="spacing" textLength="13.7017" x="669.9219" y="312.5776">no</text><rect fill="#FFFFFF" height="33.9688" rx="12.5" ry="12.5" style="stroke:#333333;stroke-width:0.5;" width="80.0005" x="290.7854" y="337.1719"/><text fill="#000000" font-family="sans-serif" font-size="12" lengthAdjust="spacing" textLength="60.0005" x="300.7854" y="358.3105">&#35835;&#21462;&#28201;&#24230;&#28304;</text><polygon fill="#FFFFFF" points="267.8821,391.1406,393.6892,391.1406,405.6892,403.1406,393.6892,415.1406,267.8821,415.1406,255.8821,403.1406,267.8821,391.1406" style="stroke:#333333;stroke-width:0.5;"/><text fill="#000000" font-family="sans-serif" font-size="11" lengthAdjust="spacing" textLength="125.8071" x="267.8821" y="406.9487">temp_type == MIXED?</text><text fill="#000000" font-family="sans-serif" font-size="11" lengthAdjust="spacing" textLength="19.0083" x="236.8738" y="400.5464">yes</text><text fill="#000000" font-family="sans-serif" font-size="11" lengthAdjust="spacing" textLength="13.7017" x="405.6892" y="400.5464">no</text><rect fill="#FFFFFF" height="33.9688" rx="12.5" ry="12.5" style="stroke:#333333;stroke-width:0.5;" width="309.9453" x="28.6221" y="425.1406"/><text fill="#000000" font-family="sans-serif" font-size="12" lengthAdjust="spacing" textLength="289.9453" x="38.6221" y="446.2793">temp_raw = bat_temp_get_temperature(MIXED)</text><rect fill="#FFFFFF" height="33.9688" rx="12.5" ry="12.5" style="stroke:#333333;stroke-width:0.5;" width="238.8184" x="358.5674" y="425.1406"/><text fill="#000000" font-family="sans-serif" font-size="12" lengthAdjust="spacing" textLength="218.8184" x="368.5674" y="446.2793">temp_raw = coul_get_temperature()</text><rect fill="#FFFFFF" height="33.9688" rx="12.5" ry="12.5" style="stroke:#333333;stroke-width:0.5;" width="172.5488" x="391.7021" y="479.1094"/><text fill="#000000" font-family="sans-serif" font-size="12" lengthAdjust="spacing" textLength="152.5488" x="401.7021" y="500.248">ichg = coul_get_current()</text><polygon fill="#FFFFFF" points="330.7856,519.0781,342.7856,531.0781,330.7856,543.0781,318.7856,531.0781,330.7856,519.0781" style="stroke:#333333;stroke-width:0.5;"/><polygon fill="#FFFFFF" points="254.2153,563.0781,407.356,563.0781,419.356,575.0781,407.356,587.0781,254.2153,587.0781,242.2153,575.0781,254.2153,563.0781" style="stroke:#333333;stroke-width:0.5;"/><text fill="#000000" font-family="sans-serif" font-size="11" lengthAdjust="spacing" textLength="153.1406" x="254.2153" y="578.8862">ntc_compensation_is == 1?</text><text fill="#000000" font-family="sans-serif" font-size="11" lengthAdjust="spacing" textLength="19.0083" x="223.207" y="572.4839">yes</text><text fill="#000000" font-family="sans-serif" font-size="11" lengthAdjust="spacing" textLength="13.7017" x="419.356" y="572.4839">no</text><rect fill="#FFFFFF" height="33.9688" rx="12.5" ry="12.5" style="stroke:#333333;stroke-width:0.5;" width="311.2168" x="47.5391" y="597.0781"/><text fill="#000000" font-family="sans-serif" font-size="12" lengthAdjust="spacing" textLength="291.2168" x="57.5391" y="618.2168">temp_now = ntc_compensation(temp_raw, ichg)</text><rect fill="#FFFFFF" height="33.9688" rx="12.5" ry="12.5" style="stroke:#333333;stroke-width:0.5;" width="159.3359" x="378.7559" y="597.0781"/><text fill="#000000" font-family="sans-serif" font-size="12" lengthAdjust="spacing" textLength="139.3359" x="388.7559" y="618.2168">temp_now = temp_raw</text><polygon fill="#FFFFFF" points="330.7856,637.0469,342.7856,649.0469,330.7856,661.0469,318.7856,649.0469,330.7856,637.0469" style="stroke:#333333;stroke-width:0.5;"/><rect fill="#FFFFFF" height="33.9688" rx="12.5" ry="12.5" style="stroke:#333333;stroke-width:0.5;" width="221.8906" x="219.8403" y="681.0469"/><text fill="#000000" font-family="sans-serif" font-size="12" lengthAdjust="spacing" textLength="201.8906" x="229.8403" y="702.1855">ui_capacity = coul_get_capacity()</text><rect fill="#FFFFFF" height="33.9688" rx="12.5" ry="12.5" style="stroke:#333333;stroke-width:0.5;" width="136.877" x="262.3472" y="735.0156"/><text fill="#000000" font-family="sans-serif" font-size="12" lengthAdjust="spacing" textLength="116.877" x="272.3472" y="756.1543">rm = coul_get_rm()</text><rect fill="#FFFFFF" height="33.9688" rx="12.5" ry="12.5" style="stroke:#333333;stroke-width:0.5;" width="138.4707" x="261.5503" y="788.9844"/><text fill="#000000" font-family="sans-serif" font-size="12" lengthAdjust="spacing" textLength="118.4707" x="271.5503" y="810.123">fcc = coul_get_fcc()</text><rect fill="#FFFFFF" height="33.9688" rx="12.5" ry="12.5" style="stroke:#333333;stroke-width:0.5;" width="205.5137" x="228.0288" y="842.9531"/><text fill="#000000" font-family="sans-serif" font-size="12" lengthAdjust="spacing" textLength="185.5137" x="238.0288" y="864.0918">cycle = coul_get_cycle_count()</text><rect fill="#FFFFFF" height="33.9688" rx="12.5" ry="12.5" style="stroke:#333333;stroke-width:0.5;" width="236.7676" x="212.4019" y="896.9219"/><text fill="#000000" font-family="sans-serif" font-size="12" lengthAdjust="spacing" textLength="216.7676" x="222.4019" y="918.0605">vbat_now = coul_get_voltage_now()</text><rect fill="#FFFFFF" height="33.9688" rx="12.5" ry="12.5" style="stroke:#333333;stroke-width:0.5;" width="231.6003" x="214.9855" y="950.8906"/><text fill="#000000" font-family="sans-serif" font-size="12" lengthAdjust="spacing" textLength="211.6003" x="224.9855" y="972.0293">voltage_max_now &#20445;&#25345;/&#25110;&#25353;&#31574;&#30053;&#26356;&#26032;</text><polygon fill="#FFFFFF" points="262.6345,1004.8594,398.9368,1004.8594,410.9368,1016.8594,398.9368,1028.8594,262.6345,1028.8594,250.6345,1016.8594,262.6345,1004.8594" style="stroke:#333333;stroke-width:0.5;"/><text fill="#000000" font-family="sans-serif" font-size="11" lengthAdjust="spacing" textLength="136.3022" x="262.6345" y="1020.6675">bat_fault_is_cutoff_vol()?</text><text fill="#000000" font-family="sans-serif" font-size="11" lengthAdjust="spacing" textLength="19.0083" x="231.6262" y="1014.2651">yes</text><text fill="#000000" font-family="sans-serif" font-size="11" lengthAdjust="spacing" textLength="13.7017" x="410.9368" y="1014.2651">no</text><rect fill="#FFFFFF" height="33.9688" rx="12.5" ry="12.5" style="stroke:#333333;stroke-width:0.5;" width="175.3496" x="47.9639" y="1038.8594"/><text fill="#000000" font-family="sans-serif" font-size="12" lengthAdjust="spacing" textLength="155.3496" x="57.9639" y="1059.998">health = UNDERVOLTAGE</text><rect fill="#FFFFFF" height="33.9688" rx="12.5" ry="12.5" style="stroke:#333333;stroke-width:0.5;" width="249.2773" x="11" y="1107.8281"/><text fill="#000000" font-family="sans-serif" font-size="12" lengthAdjust="spacing" textLength="229.2773" x="21" y="1128.9668">bat_fault_send_under_voltage_event()</text><polygon fill="#FFFFFF" points="292.2773,1063.8594,422.7305,1063.8594,434.7305,1075.8594,422.7305,1087.8594,292.2773,1087.8594,280.2773,1075.8594,292.2773,1063.8594" style="stroke:#333333;stroke-width:0.5;"/><text fill="#000000" font-family="sans-serif" font-size="11" lengthAdjust="spacing" textLength="22.8164" x="361.5039" y="1098.0698">cold</text><text fill="#000000" font-family="sans-serif" font-size="11" lengthAdjust="spacing" textLength="130.4531" x="292.2773" y="1079.6675">temp_now &lt; COLD_TH?</text><rect fill="#FFFFFF" height="33.9688" rx="12.5" ry="12.5" style="stroke:#333333;stroke-width:0.5;" width="109.4199" x="302.7939" y="1120.6641"/><text fill="#000000" font-family="sans-serif" font-size="12" lengthAdjust="spacing" textLength="89.4199" x="312.7939" y="1141.8027">health = COLD</text><polygon fill="#FFFFFF" points="466.7305,1063.8594,626.4883,1063.8594,638.4883,1075.8594,626.4883,1087.8594,466.7305,1087.8594,454.7305,1075.8594,466.7305,1063.8594" style="stroke:#333333;stroke-width:0.5;"/><text fill="#000000" font-family="sans-serif" font-size="11" lengthAdjust="spacing" textLength="18.0146" x="550.6094" y="1098.0698">hot</text><text fill="#000000" font-family="sans-serif" font-size="11" lengthAdjust="spacing" textLength="159.7578" x="466.7305" y="1079.6675">temp_now &gt; OVERHEAT_TH?</text><text fill="#000000" font-family="sans-serif" font-size="11" lengthAdjust="spacing" textLength="13.1001" x="638.4883" y="1073.2651">ok</text><rect fill="#FFFFFF" height="33.9688" rx="12.5" ry="12.5" style="stroke:#333333;stroke-width:0.5;" width="141.3887" x="475.915" y="1120.6641"/><text fill="#000000" font-family="sans-serif" font-size="12" lengthAdjust="spacing" textLength="121.3887" x="485.915" y="1141.8027">health = OVERHEAT</text><rect fill="#FFFFFF" height="33.9688" rx="12.5" ry="12.5" style="stroke:#333333;stroke-width:0.5;" width="113.0996" x="658.4883" y="1117.2617"/><text fill="#000000" font-family="sans-serif" font-size="12" lengthAdjust="spacing" textLength="93.0996" x="668.4883" y="1138.4004">health = GOOD</text><polygon fill="#FFFFFF" points="330.7856,1180.6328,342.7856,1192.6328,330.7856,1204.6328,318.7856,1192.6328,330.7856,1180.6328" style="stroke:#333333;stroke-width:0.5;"/><rect fill="#FFFFFF" height="47.9375" rx="12.5" ry="12.5" style="stroke:#333333;stroke-width:0.5;" width="259.748" x="200.9116" y="1224.6328"/><text fill="#000000" font-family="sans-serif" font-size="12" lengthAdjust="spacing" textLength="107.9945" x="210.9116" y="1245.7715">&#26356;&#26032; di-&gt;data &#32531;&#23384;</text><text fill="#000000" font-family="sans-serif" font-size="12" lengthAdjust="spacing" textLength="239.748" x="210.9116" y="1259.7402">(exist/status/health/cap/temp/fcc/rm/...)</text><rect fill="#FFFFFF" height="33.9688" rx="12.5" ry="12.5" style="stroke:#333333;stroke-width:0.5;" width="130.2734" x="855.2803" y="337.1719"/><text fill="#000000" font-family="sans-serif" font-size="12" lengthAdjust="spacing" textLength="110.2734" x="865.2803" y="358.3105">di-&gt;data.exist = 0</text><rect fill="#FFFFFF" height="33.9688" rx="12.5" ry="12.5" style="stroke:#333333;stroke-width:0.5;" width="237.6582" x="801.5879" y="391.1406"/><text fill="#000000" font-family="sans-serif" font-size="12" lengthAdjust="spacing" textLength="217.6582" x="811.5879" y="412.2793">di-&gt;data.health/status = UNKNOWN</text><polygon fill="#FFFFFF" points="625.6013,1278.5703,637.6013,1290.5703,625.6013,1302.5703,613.6013,1290.5703,625.6013,1278.5703" style="stroke:#333333;stroke-width:0.5;"/><rect fill="#FFFFFF" height="33.9688" rx="12.5" ry="12.5" style="stroke:#333333;stroke-width:0.5;" width="170.5332" x="540.3347" y="1322.5703"/><text fill="#000000" font-family="sans-serif" font-size="12" lengthAdjust="spacing" textLength="150.5332" x="550.3347" y="1343.709">mutex_unlock(data_lock)</text><polygon fill="#FFFFFF" points="562.8159,1376.5391,688.3867,1376.5391,700.3867,1388.5391,688.3867,1400.5391,562.8159,1400.5391,550.8159,1388.5391,562.8159,1376.5391" style="stroke:#333333;stroke-width:0.5;"/><text fill="#000000" font-family="sans-serif" font-size="11" lengthAdjust="spacing" textLength="125.5708" x="562.8159" y="1392.3472">health == UNKNOWN?</text><text fill="#000000" font-family="sans-serif" font-size="11" lengthAdjust="spacing" textLength="52.4595" x="498.3564" y="1385.9448">abnormal</text><text fill="#000000" font-family="sans-serif" font-size="11" lengthAdjust="spacing" textLength="38.7363" x="700.3867" y="1385.9448">normal</text><rect fill="#FFFFFF" height="33.9688" rx="12.5" ry="12.5" style="stroke:#333333;stroke-width:0.5;" width="251.791" x="370.4694" y="1410.5391"/><text fill="#000000" font-family="sans-serif" font-size="12" lengthAdjust="spacing" textLength="231.791" x="380.4694" y="1431.6777">work_interval = ABNORMAL_INTERVAL</text><rect fill="#FFFFFF" height="47.9375" rx="12.5" ry="12.5" style="stroke:#333333;stroke-width:0.5;" width="225.1548" x="642.2604" y="1410.5391"/><text fill="#000000" font-family="sans-serif" font-size="12" lengthAdjust="spacing" textLength="205.1548" x="652.2604" y="1431.6777">&#26681;&#25454; ui_capacity &#21305;&#37197; work_para &#34920;</text><text fill="#000000" font-family="sans-serif" font-size="12" lengthAdjust="spacing" textLength="108.6037" x="652.2604" y="1445.6465">&#24471;&#21040; work_interval</text><polygon fill="#FFFFFF" points="625.6013,1464.4766,637.6013,1476.4766,625.6013,1488.4766,613.6013,1476.4766,625.6013,1464.4766" style="stroke:#333333;stroke-width:0.5;"/><rect fill="#FFFFFF" height="33.9688" rx="12.5" ry="12.5" style="stroke:#333333;stroke-width:0.5;" width="236.5742" x="507.3142" y="1508.4766"/><text fill="#000000" font-family="sans-serif" font-size="12" lengthAdjust="spacing" textLength="216.5742" x="517.3142" y="1529.6152">queue_delayed_work(work_interval)</text><rect fill="#FFFFFF" height="33.9688" rx="12.5" ry="12.5" style="stroke:#333333;stroke-width:0.5;" width="317.6504" x="466.7761" y="1610.8477"/><text fill="#000000" font-family="sans-serif" font-size="12" lengthAdjust="spacing" textLength="297.6504" x="476.7761" y="1631.9863">power_supply_sync_changed("battery"/"Battery")</text><polygon fill="#FFFFFF" points="578.6824,1562.4453,672.5202,1562.4453,684.5202,1574.4453,672.5202,1586.4453,578.6824,1586.4453,566.6824,1574.4453,578.6824,1562.4453" style="stroke:#333333;stroke-width:0.5;"/><text fill="#000000" font-family="sans-serif" font-size="11" lengthAdjust="spacing" textLength="19.0083" x="629.6013" y="1596.6558">yes</text><text fill="#000000" font-family="sans-serif" font-size="11" lengthAdjust="spacing" textLength="93.8378" x="578.6824" y="1578.2534">&#38656;&#35201;&#31435;&#21363;&#36890;&#30693;&#19978;&#23618;?</text><polygon fill="#FFFFFF" points="625.6013,1664.8164,637.6013,1676.8164,625.6013,1688.8164,613.6013,1676.8164,625.6013,1664.8164" style="stroke:#333333;stroke-width:0.5;"/><ellipse cx="625.6013" cy="1719.8164" fill="none" rx="11" ry="11" style="stroke:#222222;stroke-width:1;"/><ellipse cx="625.6013" cy="1719.8164" fill="#222222" rx="6" ry="6" style="stroke:#222222;stroke-width:1;"/><line style="stroke:#181818;stroke-width:1;" x1="625.6013" x2="625.6013" y1="67.2969" y2="87.2969"/><polygon fill="#181818" points="621.6013,77.2969,625.6013,87.2969,629.6013,77.2969,625.6013,81.2969" style="stroke:#181818;stroke-width:1;"/><line style="stroke:#181818;stroke-width:1;" x1="625.6013" x2="625.6013" y1="121.2656" y2="141.2656"/><polygon fill="#181818" points="621.6013,131.2656,625.6013,141.2656,629.6013,131.2656,625.6013,135.2656" style="stroke:#181818;stroke-width:1;"/><line style="stroke:#181818;stroke-width:1;" x1="625.6013" x2="625.6013" y1="175.2344" y2="195.2344"/><polygon fill="#181818" points="621.6013,185.2344,625.6013,195.2344,629.6013,185.2344,625.6013,189.2344" style="stroke:#181818;stroke-width:1;"/><line style="stroke:#181818;stroke-width:1;" x1="625.6013" x2="625.6013" y1="229.2031" y2="249.2031"/><polygon fill="#181818" points="621.6013,239.2031,625.6013,249.2031,629.6013,239.2031,625.6013,243.2031" style="stroke:#181818;stroke-width:1;"/><line style="stroke:#181818;stroke-width:1;" x1="477.9766" x2="477.9766" y1="459.1094" y2="479.1094"/><polygon fill="#181818" points="473.9766,469.1094,477.9766,479.1094,481.9766,469.1094,477.9766,473.1094" style="stroke:#181818;stroke-width:1;"/><line style="stroke:#181818;stroke-width:1;" x1="255.8821" x2="183.5947" y1="403.1406" y2="403.1406"/><line style="stroke:#181818;stroke-width:1;" x1="183.5947" x2="183.5947" y1="403.1406" y2="425.1406"/><polygon fill="#181818" points="179.5947,415.1406,183.5947,425.1406,187.5947,415.1406,183.5947,419.1406" style="stroke:#181818;stroke-width:1;"/><line style="stroke:#181818;stroke-width:1;" x1="405.6892" x2="477.9766" y1="403.1406" y2="403.1406"/><line style="stroke:#181818;stroke-width:1;" x1="477.9766" x2="477.9766" y1="403.1406" y2="425.1406"/><polygon fill="#181818" points="473.9766,415.1406,477.9766,425.1406,481.9766,415.1406,477.9766,419.1406" style="stroke:#181818;stroke-width:1;"/><line style="stroke:#181818;stroke-width:1;" x1="183.5947" x2="183.5947" y1="459.1094" y2="531.0781"/><line style="stroke:#181818;stroke-width:1;" x1="183.5947" x2="318.7856" y1="531.0781" y2="531.0781"/><polygon fill="#181818" points="308.7856,527.0781,318.7856,531.0781,308.7856,535.0781,312.7856,531.0781" style="stroke:#181818;stroke-width:1;"/><line style="stroke:#181818;stroke-width:1;" x1="477.9766" x2="477.9766" y1="513.0781" y2="531.0781"/><line style="stroke:#181818;stroke-width:1;" x1="477.9766" x2="342.7856" y1="531.0781" y2="531.0781"/><polygon fill="#181818" points="352.7856,527.0781,342.7856,531.0781,352.7856,535.0781,348.7856,531.0781" style="stroke:#181818;stroke-width:1;"/><line style="stroke:#181818;stroke-width:1;" x1="330.7856" x2="330.7856" y1="371.1406" y2="391.1406"/><polygon fill="#181818" points="326.7856,381.1406,330.7856,391.1406,334.7856,381.1406,330.7856,385.1406" style="stroke:#181818;stroke-width:1;"/><line style="stroke:#181818;stroke-width:1;" x1="242.2153" x2="203.1475" y1="575.0781" y2="575.0781"/><line style="stroke:#181818;stroke-width:1;" x1="203.1475" x2="203.1475" y1="575.0781" y2="597.0781"/><polygon fill="#181818" points="199.1475,587.0781,203.1475,597.0781,207.1475,587.0781,203.1475,591.0781" style="stroke:#181818;stroke-width:1;"/><line style="stroke:#181818;stroke-width:1;" x1="419.356" x2="458.4238" y1="575.0781" y2="575.0781"/><line style="stroke:#181818;stroke-width:1;" x1="458.4238" x2="458.4238" y1="575.0781" y2="597.0781"/><polygon fill="#181818" points="454.4238,587.0781,458.4238,597.0781,462.4238,587.0781,458.4238,591.0781" style="stroke:#181818;stroke-width:1;"/><line style="stroke:#181818;stroke-width:1;" x1="203.1475" x2="203.1475" y1="631.0469" y2="649.0469"/><line style="stroke:#181818;stroke-width:1;" x1="203.1475" x2="318.7856" y1="649.0469" y2="649.0469"/><polygon fill="#181818" points="308.7856,645.0469,318.7856,649.0469,308.7856,653.0469,312.7856,649.0469" style="stroke:#181818;stroke-width:1;"/><line style="stroke:#181818;stroke-width:1;" x1="458.4238" x2="458.4238" y1="631.0469" y2="649.0469"/><line style="stroke:#181818;stroke-width:1;" x1="458.4238" x2="342.7856" y1="649.0469" y2="649.0469"/><polygon fill="#181818" points="352.7856,645.0469,342.7856,649.0469,352.7856,653.0469,348.7856,649.0469" style="stroke:#181818;stroke-width:1;"/><line style="stroke:#181818;stroke-width:1;" x1="330.7856" x2="330.7856" y1="543.0781" y2="563.0781"/><polygon fill="#181818" points="326.7856,553.0781,330.7856,563.0781,334.7856,553.0781,330.7856,557.0781" style="stroke:#181818;stroke-width:1;"/><line style="stroke:#181818;stroke-width:1;" x1="330.7856" x2="330.7856" y1="661.0469" y2="681.0469"/><polygon fill="#181818" points="326.7856,671.0469,330.7856,681.0469,334.7856,671.0469,330.7856,675.0469" style="stroke:#181818;stroke-width:1;"/><line style="stroke:#181818;stroke-width:1;" x1="330.7856" x2="330.7856" y1="715.0156" y2="735.0156"/><polygon fill="#181818" points="326.7856,725.0156,330.7856,735.0156,334.7856,725.0156,330.7856,729.0156" style="stroke:#181818;stroke-width:1;"/><line style="stroke:#181818;stroke-width:1;" x1="330.7856" x2="330.7856" y1="768.9844" y2="788.9844"/><polygon fill="#181818" points="326.7856,778.9844,330.7856,788.9844,334.7856,778.9844,330.7856,782.9844" style="stroke:#181818;stroke-width:1;"/><line style="stroke:#181818;stroke-width:1;" x1="330.7856" x2="330.7856" y1="822.9531" y2="842.9531"/><polygon fill="#181818" points="326.7856,832.9531,330.7856,842.9531,334.7856,832.9531,330.7856,836.9531" style="stroke:#181818;stroke-width:1;"/><line style="stroke:#181818;stroke-width:1;" x1="330.7856" x2="330.7856" y1="876.9219" y2="896.9219"/><polygon fill="#181818" points="326.7856,886.9219,330.7856,896.9219,334.7856,886.9219,330.7856,890.9219" style="stroke:#181818;stroke-width:1;"/><line style="stroke:#181818;stroke-width:1;" x1="330.7856" x2="330.7856" y1="930.8906" y2="950.8906"/><polygon fill="#181818" points="326.7856,940.8906,330.7856,950.8906,334.7856,940.8906,330.7856,944.8906" style="stroke:#181818;stroke-width:1;"/><line style="stroke:#181818;stroke-width:1;" x1="135.6387" x2="135.6387" y1="1072.8281" y2="1107.8281"/><polygon fill="#181818" points="131.6387,1097.8281,135.6387,1107.8281,139.6387,1097.8281,135.6387,1101.8281" style="stroke:#181818;stroke-width:1;"/><line style="stroke:#181818;stroke-width:1;" x1="357.5039" x2="357.5039" y1="1087.8594" y2="1120.6641"/><polygon fill="#181818" points="353.5039,1110.6641,357.5039,1120.6641,361.5039,1110.6641,357.5039,1114.6641" style="stroke:#181818;stroke-width:1;"/><line style="stroke:#181818;stroke-width:1;" x1="357.5039" x2="357.5039" y1="1154.6328" y2="1174.6328"/><polygon fill="#181818" points="353.5039,1164.6328,357.5039,1174.6328,361.5039,1164.6328,357.5039,1168.6328" style="stroke:#181818;stroke-width:1;"/><line style="stroke:#181818;stroke-width:1;" x1="546.6094" x2="546.6094" y1="1087.8594" y2="1120.6641"/><polygon fill="#181818" points="542.6094,1110.6641,546.6094,1120.6641,550.6094,1110.6641,546.6094,1114.6641" style="stroke:#181818;stroke-width:1;"/><line style="stroke:#181818;stroke-width:1;" x1="546.6094" x2="546.6094" y1="1154.6328" y2="1174.6328"/><polygon fill="#181818" points="542.6094,1164.6328,546.6094,1174.6328,550.6094,1164.6328,546.6094,1168.6328" style="stroke:#181818;stroke-width:1;"/><line style="stroke:#181818;stroke-width:1;" x1="434.7305" x2="454.7305" y1="1075.8594" y2="1075.8594"/><polygon fill="#181818" points="444.7305,1071.8594,454.7305,1075.8594,444.7305,1079.8594,448.7305,1075.8594" style="stroke:#181818;stroke-width:1;"/><line style="stroke:#181818;stroke-width:1;" x1="410.9368" x2="525.9326" y1="1016.8594" y2="1016.8594"/><line style="stroke:#181818;stroke-width:1;" x1="525.9326" x2="525.9326" y1="1016.8594" y2="1038.8594"/><line style="stroke:#181818;stroke-width:1;" x1="525.9326" x2="357.5039" y1="1038.8594" y2="1038.8594"/><line style="stroke:#181818;stroke-width:1;" x1="357.5039" x2="357.5039" y1="1038.8594" y2="1063.8594"/><polygon fill="#181818" points="353.5039,1053.8594,357.5039,1063.8594,361.5039,1053.8594,357.5039,1057.8594" style="stroke:#181818;stroke-width:1;"/><line style="stroke:#181818;stroke-width:1;" x1="638.4883" x2="715.0381" y1="1075.8594" y2="1075.8594"/><line style="stroke:#181818;stroke-width:1;" x1="715.0381" x2="715.0381" y1="1075.8594" y2="1117.2617"/><polygon fill="#181818" points="711.0381,1107.2617,715.0381,1117.2617,719.0381,1107.2617,715.0381,1111.2617" style="stroke:#181818;stroke-width:1;"/><line style="stroke:#181818;stroke-width:1;" x1="715.0381" x2="715.0381" y1="1151.2305" y2="1174.6328"/><polygon fill="#181818" points="711.0381,1164.6328,715.0381,1174.6328,719.0381,1164.6328,715.0381,1168.6328" style="stroke:#181818;stroke-width:1;"/><line style="stroke:#181818;stroke-width:1;" x1="357.5039" x2="715.0381" y1="1174.6328" y2="1174.6328"/><line style="stroke:#181818;stroke-width:1;" x1="250.6345" x2="135.6387" y1="1016.8594" y2="1016.8594"/><line style="stroke:#181818;stroke-width:1;" x1="135.6387" x2="135.6387" y1="1016.8594" y2="1038.8594"/><polygon fill="#181818" points="131.6387,1028.8594,135.6387,1038.8594,139.6387,1028.8594,135.6387,1032.8594" style="stroke:#181818;stroke-width:1;"/><line style="stroke:#181818;stroke-width:1;" x1="135.6387" x2="135.6387" y1="1141.7969" y2="1192.6328"/><line style="stroke:#181818;stroke-width:1;" x1="135.6387" x2="318.7856" y1="1192.6328" y2="1192.6328"/><polygon fill="#181818" points="308.7856,1188.6328,318.7856,1192.6328,308.7856,1196.6328,312.7856,1192.6328" style="stroke:#181818;stroke-width:1;"/><line style="stroke:#181818;stroke-width:1;" x1="525.9326" x2="525.9326" y1="1174.6328" y2="1192.6328"/><line style="stroke:#181818;stroke-width:1;" x1="525.9326" x2="342.7856" y1="1192.6328" y2="1192.6328"/><polygon fill="#181818" points="352.7856,1188.6328,342.7856,1192.6328,352.7856,1196.6328,348.7856,1192.6328" style="stroke:#181818;stroke-width:1;"/><line style="stroke:#181818;stroke-width:1;" x1="330.7856" x2="330.7856" y1="984.8594" y2="1004.8594"/><polygon fill="#181818" points="326.7856,994.8594,330.7856,1004.8594,334.7856,994.8594,330.7856,998.8594" style="stroke:#181818;stroke-width:1;"/><line style="stroke:#181818;stroke-width:1;" x1="330.7856" x2="330.7856" y1="1204.6328" y2="1224.6328"/><polygon fill="#181818" points="326.7856,1214.6328,330.7856,1224.6328,334.7856,1214.6328,330.7856,1218.6328" style="stroke:#181818;stroke-width:1;"/><line style="stroke:#181818;stroke-width:1;" x1="920.417" x2="920.417" y1="371.1406" y2="391.1406"/><polygon fill="#181818" points="916.417,381.1406,920.417,391.1406,924.417,381.1406,920.417,385.1406" style="stroke:#181818;stroke-width:1;"/><line style="stroke:#181818;stroke-width:1;" x1="581.2808" x2="330.7856" y1="315.1719" y2="315.1719"/><line style="stroke:#181818;stroke-width:1;" x1="330.7856" x2="330.7856" y1="315.1719" y2="337.1719"/><polygon fill="#181818" points="326.7856,327.1719,330.7856,337.1719,334.7856,327.1719,330.7856,331.1719" style="stroke:#181818;stroke-width:1;"/><line style="stroke:#181818;stroke-width:1;" x1="669.9219" x2="920.417" y1="315.1719" y2="315.1719"/><line style="stroke:#181818;stroke-width:1;" x1="920.417" x2="920.417" y1="315.1719" y2="337.1719"/><polygon fill="#181818" points="916.417,327.1719,920.417,337.1719,924.417,327.1719,920.417,331.1719" style="stroke:#181818;stroke-width:1;"/><line style="stroke:#181818;stroke-width:1;" x1="330.7856" x2="330.7856" y1="1272.5703" y2="1290.5703"/><line style="stroke:#181818;stroke-width:1;" x1="330.7856" x2="613.6013" y1="1290.5703" y2="1290.5703"/><polygon fill="#181818" points="603.6013,1286.5703,613.6013,1290.5703,603.6013,1294.5703,607.6013,1290.5703" style="stroke:#181818;stroke-width:1;"/><line style="stroke:#181818;stroke-width:1;" x1="920.417" x2="920.417" y1="425.1094" y2="1290.5703"/><line style="stroke:#181818;stroke-width:1;" x1="920.417" x2="637.6013" y1="1290.5703" y2="1290.5703"/><polygon fill="#181818" points="647.6013,1286.5703,637.6013,1290.5703,647.6013,1294.5703,643.6013,1290.5703" style="stroke:#181818;stroke-width:1;"/><line style="stroke:#181818;stroke-width:1;" x1="625.6013" x2="625.6013" y1="283.1719" y2="303.1719"/><polygon fill="#181818" points="621.6013,293.1719,625.6013,303.1719,629.6013,293.1719,625.6013,297.1719" style="stroke:#181818;stroke-width:1;"/><line style="stroke:#181818;stroke-width:1;" x1="625.6013" x2="625.6013" y1="1302.5703" y2="1322.5703"/><polygon fill="#181818" points="621.6013,1312.5703,625.6013,1322.5703,629.6013,1312.5703,625.6013,1316.5703" style="stroke:#181818;stroke-width:1;"/><line style="stroke:#181818;stroke-width:1;" x1="550.8159" x2="496.3649" y1="1388.5391" y2="1388.5391"/><line style="stroke:#181818;stroke-width:1;" x1="496.3649" x2="496.3649" y1="1388.5391" y2="1410.5391"/><polygon fill="#181818" points="492.3649,1400.5391,496.3649,1410.5391,500.3649,1400.5391,496.3649,1404.5391" style="stroke:#181818;stroke-width:1;"/><line style="stroke:#181818;stroke-width:1;" x1="700.3867" x2="754.8378" y1="1388.5391" y2="1388.5391"/><line style="stroke:#181818;stroke-width:1;" x1="754.8378" x2="754.8378" y1="1388.5391" y2="1410.5391"/><polygon fill="#181818" points="750.8378,1400.5391,754.8378,1410.5391,758.8378,1400.5391,754.8378,1404.5391" style="stroke:#181818;stroke-width:1;"/><line style="stroke:#181818;stroke-width:1;" x1="496.3649" x2="496.3649" y1="1444.5078" y2="1476.4766"/><line style="stroke:#181818;stroke-width:1;" x1="496.3649" x2="613.6013" y1="1476.4766" y2="1476.4766"/><polygon fill="#181818" points="603.6013,1472.4766,613.6013,1476.4766,603.6013,1480.4766,607.6013,1476.4766" style="stroke:#181818;stroke-width:1;"/><line style="stroke:#181818;stroke-width:1;" x1="754.8378" x2="754.8378" y1="1458.4766" y2="1476.4766"/><line style="stroke:#181818;stroke-width:1;" x1="754.8378" x2="637.6013" y1="1476.4766" y2="1476.4766"/><polygon fill="#181818" points="647.6013,1472.4766,637.6013,1476.4766,647.6013,1480.4766,643.6013,1476.4766" style="stroke:#181818;stroke-width:1;"/><line style="stroke:#181818;stroke-width:1;" x1="625.6013" x2="625.6013" y1="1356.5391" y2="1376.5391"/><polygon fill="#181818" points="621.6013,1366.5391,625.6013,1376.5391,629.6013,1366.5391,625.6013,1370.5391" style="stroke:#181818;stroke-width:1;"/><line style="stroke:#181818;stroke-width:1;" x1="625.6013" x2="625.6013" y1="1488.4766" y2="1508.4766"/><polygon fill="#181818" points="621.6013,1498.4766,625.6013,1508.4766,629.6013,1498.4766,625.6013,1502.4766" style="stroke:#181818;stroke-width:1;"/><line style="stroke:#181818;stroke-width:1;" x1="625.6013" x2="625.6013" y1="1586.4453" y2="1610.8477"/><polygon fill="#181818" points="621.6013,1600.8477,625.6013,1610.8477,629.6013,1600.8477,625.6013,1604.8477" style="stroke:#181818;stroke-width:1;"/><line style="stroke:#181818;stroke-width:1;" x1="684.5202" x2="794.4265" y1="1574.4453" y2="1574.4453"/><polygon fill="#181818" points="790.4265,1617.832,794.4265,1627.832,798.4265,1617.832,794.4265,1621.832" style="stroke:#181818;stroke-width:1;"/><line style="stroke:#181818;stroke-width:1;" x1="794.4265" x2="794.4265" y1="1574.4453" y2="1676.8164"/><line style="stroke:#181818;stroke-width:1;" x1="794.4265" x2="637.6013" y1="1676.8164" y2="1676.8164"/><polygon fill="#181818" points="647.6013,1672.8164,637.6013,1676.8164,647.6013,1680.8164,643.6013,1676.8164" style="stroke:#181818;stroke-width:1;"/><line style="stroke:#181818;stroke-width:1;" x1="625.6013" x2="625.6013" y1="1644.8164" y2="1664.8164"/><polygon fill="#181818" points="621.6013,1654.8164,625.6013,1664.8164,629.6013,1654.8164,625.6013,1658.8164" style="stroke:#181818;stroke-width:1;"/><line style="stroke:#181818;stroke-width:1;" x1="625.6013" x2="625.6013" y1="1542.4453" y2="1562.4453"/><polygon fill="#181818" points="621.6013,1552.4453,625.6013,1562.4453,629.6013,1552.4453,625.6013,1556.4453" style="stroke:#181818;stroke-width:1;"/><line style="stroke:#181818;stroke-width:1;" x1="625.6013" x2="625.6013" y1="1688.8164" y2="1708.8164"/><polygon fill="#181818" points="621.6013,1698.8164,625.6013,1708.8164,629.6013,1698.8164,625.6013,1702.8164" style="stroke:#181818;stroke-width:1;"/><!--SRC=[TLHBRzD04BxxLwpAnP6W1d5BQ57QXeSeYLILnm5fjLrl4YlshbclqqO8gKL2AhGL84H1F0GSA234Iu1uLV1dQgSzzI-mktxKQOfFtfdvllbsTcQ48rm2vf0GXFSWPfm0Zr57C0xd6U-0QFbxlFuf_hRKVxEokxbSnSBfEg87fXpKuiZRtRnb11s7-aWU0Cgyrmm09X3kj3WBgJt9NCR1eLFwKnx6RS9Jwt7z6TUDG20k3ACya7xxzKPqvnumRUAY7h6riLGnoX3w7fn77HBwa7G95QOwk0nhhnSAiW3LoRIHG32r6sMou0G2Z07CGXSwLDwvYJ21JW2p2kW8K_j5poSAvJI1cGB7mB6J9I3QX0ApHuAIl4nv- -FlwCvw_EDjz6iZ_dMt8cqA8OZdQmg5Ed_sScrgFr9YTH17yrAI503riKMI7yAH23anDRQaQ8aR461IDWpMUlS3DKR6ERZTAiRWa7DLiOIJsaxJI3LJWMKBI0OQ8E4mAWjpu9spv9IfvFjHPYRiC52f_oizGMV10sBAeGCnyX5MpLIKdjeIxMNk5PtSIyrDZ8jsUKmTk8TbinVvb46A3xDobBlg7H9bULINkGArY39dKQd5GmiwUEllitXroOgNr-FLM_ttw_q7h-8dN-NWLBBIAjec2bsXcWs7WZMRYjSi7L3RDa6kQ4i55-fJjPcBZUdPwkbQ-fXxF86i5fJJHNWkC9c40mgUDwGIUm9CDgQduEoPF3Lchfq45hEhg2Ih8XkW60UDYxMPCxNgR96cpSGmInQunmHCrXcEEzrePDbq5nIx8Qabi9qZusgUGN_pVlJ-qHMQZAKbDuS80okXicIFM4ge9T_TufurEZggfhXOa7B6D9ejXAEL0NDAbH3hXpXNRrogLunKKxfXGZgyOrITialbmBn4Q8uoxY5Ngr3BBDb2NUJABDM9UcFcV7KQdgtFodUlJbTorJacVl4pNli0YlCHhVxSkRa6D9lQms3xvPihDFhpC5h-10PoxEc_6fAGmE9MDGSYivliF5tStbZglrk9rhxiB3xkFt-rzUDszFd6q1RqsRnin23qVRS7WnwLAw6DQ8lOvaYwMaUiaOdqhvGB2GJp_m40]--></g></svg>